<svg xmlns="http://www.w3.org/2000/svg" viewBox="0 0 220 220" role="img" aria-labelledby="title desc">
  <title id="title">Richard cyber avatar</title>
  <desc id="desc">Futuristic neon cyber avatar with visor and circuit accents</desc>
  <defs>
    <linearGradient id="bg" x1="0" y1="0" x2="1" y2="1">
      <stop offset="0" stop-color="#07101d"/>
      <stop offset="1" stop-color="#111d33"/>
    </linearGradient>
    <linearGradient id="neon" x1="0" y1="0" x2="1" y2="0">
      <stop offset="0" stop-color="#21ff9a"/>
      <stop offset="1" stop-color="#27d8ff"/>
    </linearGradient>
    <radialGradient id="glow" cx="50%" cy="38%" r="60%">
      <stop offset="0" stop-color="#1eff8f" stop-opacity="0.45"/>
      <stop offset="1" stop-color="#1eff8f" stop-opacity="0"/>
    </radialGradient>
  </defs>

  <rect width="220" height="220" rx="28" fill="url(#bg)"/>
  <rect x="8" y="8" width="204" height="204" rx="22" fill="none" stroke="#2d436a" stroke-width="2"/>
  <circle cx="110" cy="85" r="68" fill="url(#glow)"/>

  <path d="M52 158c11-26 34-39 58-39s47 13 58 39" fill="#1a2d49"/>
  <path d="M80 128c8 8 20 13 30 13s22-5 30-13" fill="#d8e2f0"/>
  <ellipse cx="110" cy="89" rx="31" ry="35" fill="#d8e2f0"/>

  <path d="M78 76c2-24 18-38 32-38s30 14 32 38" fill="#0c1526"/>
  <rect x="72" y="85" width="76" height="19" rx="9" fill="#0f2038" stroke="url(#neon)" stroke-width="3"/>
  <circle cx="95" cy="95" r="4" fill="#21ff9a"/>
  <circle cx="110" cy="95" r="4" fill="#27d8ff"/>
  <circle cx="125" cy="95" r="4" fill="#21ff9a"/>

  <path d="M56 45h23" stroke="url(#neon)" stroke-width="3" stroke-linecap="round"/>
  <path d="M49 56h30" stroke="#2f4f76" stroke-width="2" stroke-linecap="round"/>
  <path d="M141 45h23" stroke="url(#neon)" stroke-width="3" stroke-linecap="round"/>
  <path d="M141 56h30" stroke="#2f4f76" stroke-width="2" stroke-linecap="round"/>

  <path d="M63 177h95" stroke="#2f4f76" stroke-width="2"/>
  <path d="M70 184h81" stroke="url(#neon)" stroke-width="3" stroke-linecap="round"/>

  <text x="110" y="205" text-anchor="middle" font-family="Orbitron, Arial, sans-serif" font-size="13" fill="#99f7d2" letter-spacing="1.5">RICHARD</text>
</svg>
